<?xml version="1.0" encoding="UTF-8" standalone="no"?>
<!DOCTYPE svg PUBLIC "-//W3C//DTD SVG 1.1//EN" "http://www.w3.org/Graphics/SVG/1.1/DTD/svg11.dtd">
<svg width="100%" height="100%" viewBox="0 0 380 310" version="1.1" xmlns="http://www.w3.org/2000/svg" xmlns:xlink="http://www.w3.org/1999/xlink" xml:space="preserve" xmlns:serif="http://www.serif.com/" style="fill-rule:evenodd;clip-rule:evenodd;stroke-linejoin:round;stroke-miterlimit:2;">
    <g transform="matrix(1,0,0,1,-798.172,-883.711)">
        <g id="Circles" transform="matrix(0.145722,0,0,0.145722,873.72,893.063)">
            <g transform="matrix(0.935831,0,0,0.972833,114.721,-21.2832)">
                <path d="M1605.23,1513.82C1533.29,1610.3 1438.35,1689.94 1327.99,1745.02C1220.96,1798.43 1099.51,1828.76 970.755,1829.42C930.898,1829.58 891.715,1826.91 853.415,1821.56C814.124,1816.08 775.764,1807.81 738.559,1796.95C617.307,1761.32 508.258,1698.48 419.598,1615.51C330.803,1532.41 262.518,1429.19 222.155,1313.76C208.687,1275.09 198.361,1235.04 191.493,1193.89C184.807,1153.83 181.41,1112.72 181.532,1070.85C181.608,1044.97 183.034,1019.41 185.742,994.206C188.5,968.537 192.595,943.248 197.95,918.403C213.062,848.299 238.254,781.74 271.976,720.175C306.285,657.538 349.441,600.08 399.837,549.337C473.036,475.622 561.574,416.197 660.376,375.48C755.677,336.205 860.571,314.331 970.755,314.398C991.578,314.382 1012.21,315.156 1032.63,316.661C1053.37,318.189 1073.88,320.467 1094.14,323.504C1236.03,344.002 1365.66,401.006 1472.35,484.263C1580.67,568.792 1665.37,680.301 1715.35,808.208C1731.44,849.661 1743.94,892.813 1752.33,937.332C1760.5,980.668 1764.79,1025.29 1764.97,1070.85C1765.03,1089.34 1763.14,1107.67 1760,1125.81C1746.61,1203.15 1711.82,1277.19 1712.03,1347.15C1711.95,1413.43 1749.97,1476.11 1762.37,1540.82C1765.38,1556.53 1766.77,1572.38 1765.6,1588.43C1760.87,1651.71 1699.52,1739.68 1672.72,1816.28C1658.06,1858.22 1653.82,1897.02 1670.69,1927.71C1687.38,1958.22 1724.96,1986.17 1772.21,2010.73C1859.92,2056.32 1981.34,2090.86 2054.56,2111.59C2063.79,2114.06 2073.38,2108.86 2075.94,2099.97C2078.51,2091.09 2073.1,2081.88 2063.87,2079.4C2001.53,2063.7 1903.8,2039.27 1822.12,2005.64C1762.18,1980.97 1710.73,1951.93 1690.64,1917.31C1675.71,1891.46 1680.29,1858.32 1692.12,1822.37C1717.86,1744.14 1778.27,1653.76 1782.06,1589.44C1783.11,1572.06 1781.37,1554.95 1777.93,1537.98C1764.99,1474.16 1726.66,1412.6 1726.17,1347.11C1725.94,1277.86 1760.4,1204.58 1773.88,1128.05C1777.21,1109.17 1779.34,1090.1 1779.39,1070.85C1779.57,1024.43 1775.47,978.963 1767.57,934.743C1759.43,889.232 1747.26,845.046 1731.31,802.567C1682.14,670.668 1596.97,555.131 1487.26,466.851C1378.32,379.188 1245.13,318.485 1098.78,295.19C1077.77,291.96 1056.49,289.493 1034.97,287.851C1013.78,286.234 992.366,285.42 970.755,285.403C856.368,285.473 747.413,308.114 648.622,349.209C546.359,391.749 455.019,454.02 379.586,530.832C327.762,583.611 283.454,643.288 248.352,708.285C213.895,772.088 188.29,841.005 173.122,913.524C167.752,939.193 163.687,965.312 161,991.815C158.364,1017.81 157.047,1044.17 157.126,1070.85C157.251,1113.99 161.017,1156.32 168.124,1197.56C175.421,1239.9 186.23,1281.1 200.291,1320.86C242.089,1439.51 312.833,1545.27 404.097,1630.82C495.261,1716.28 606.958,1781.62 731.585,1818.76C769.843,1830.25 809.316,1839.08 849.768,1845.05C889.234,1850.89 929.634,1853.99 970.755,1854.16C1104.05,1854.84 1230.04,1824.51 1341.52,1770.49C1457.09,1714.48 1557.06,1632.94 1633.32,1533.47C1638.96,1526.02 1637.24,1515.56 1629.49,1510.14C1621.74,1504.71 1610.87,1506.37 1605.23,1513.82Z" style="fill:rgb(33,37,41);"/>
            </g>
            <g transform="matrix(1.00928,0,0,0.97577,-78.4018,12.0098)">
                <path d="M1737.38,1528.26C1663.72,1633.35 1566.92,1720.11 1454.52,1780C1345.52,1838.09 1221.94,1870.9 1091.04,1871.55C868.497,1871.34 666.761,1777.93 521.136,1626.59C375.784,1475.53 286.507,1266.87 287.349,1037.12C287.425,936.551 305.148,840.275 336.565,750.911C369.164,658.184 416.557,572.776 476.629,498.471C497.326,472.608 529.87,452.902 553.081,429.657C565.519,417.202 575.494,403.8 580.638,388.412C589.161,362.951 598.5,321.353 595.909,286.933C593.729,257.972 583.09,234.092 559.375,225.457C522.005,211.784 442.501,199.811 358.902,198.575C287.274,197.516 212.638,204.261 158.926,225.067C110.513,243.462 66.105,275.764 24.182,314.295C-34.476,368.207 -88.238,434.484 -140.364,492.543C-175.789,531.641 -213.675,580.014 -250.395,629.348C-310.35,709.899 -366.884,793.198 -401.656,844.706C-406.371,851.956 -404.508,861.802 -397.498,866.679C-390.488,871.556 -380.969,869.629 -376.254,862.378C-343.399,809.899 -290.384,724.708 -233.045,642.744C-198.149,592.862 -161.589,544.268 -127.483,504.725C-76.532,446.187 -24.355,379.146 33.391,324.899C73.624,287.103 116.563,255.596 163.371,237.463C215.89,217.507 288.768,211.285 358.627,213.089C440.053,215.193 517.358,228.157 553.565,242.045C570.705,248.651 576.543,267.114 577.73,288.212C579.517,319.969 569.916,358.072 561.589,381.357C557.202,393.605 548.713,403.978 538.513,413.728C514.151,437.016 480.416,456.587 458.542,482.595C395.47,558.344 344.619,645.485 310.373,740.96C277.293,833.186 259.814,933.082 259.892,1037.12C260.761,1274.01 354.58,1488.09 505.163,1643.11C655.469,1797.84 862.431,1893.88 1091.04,1893.66C1225.73,1894.33 1353.02,1861.45 1465.86,1803.1C1582.85,1742.6 1684.31,1654.58 1762.03,1547.04C1767.04,1540 1765.58,1530.08 1758.78,1524.9C1751.98,1519.72 1742.39,1521.23 1737.38,1528.26Z" style="fill:rgb(33,37,41);"/>
            </g>
            <g transform="matrix(1.00928,0,0,0.97577,-78.4018,12.0098)">
                <path d="M681.391,324.004C741.949,285.38 807.748,254.545 877.69,233.778C945.506,213.641 1017.1,202.948 1091.04,202.319C1313.25,203.642 1513.21,298.915 1659.01,449.646C1679.84,471.181 1699.65,493.755 1718.38,517.298C1792.78,610.773 1850.6,720.014 1879.53,841.326C1894.47,904.008 1901.08,969.753 1900.72,1037.12C1899.82,1078.56 1896.24,1119.25 1889.48,1158.91C1882.58,1199.41 1872.32,1238.67 1859.77,1276.81L1853.62,1294.37C1850.97,1302.76 1855.41,1311.8 1863.52,1314.53C1871.63,1317.27 1880.36,1312.68 1883.01,1304.3L1887.87,1285.57C1898.09,1245.39 1905.35,1204.16 1910.11,1162.03C1914.74,1121.14 1917.11,1079.49 1916.18,1037.12C1915.82,968.559 1906.88,902.109 1892.5,838.111C1864.46,713.37 1813.3,597.627 1739.39,499.865C1720.61,475.026 1700.37,451.407 1678.84,429.129C1528.71,273.765 1319.97,179.585 1091.04,180.948C1015.05,180.301 941.421,190.567 871.267,209.572C798.446,229.3 729.357,258.562 665.566,296.536C658.238,301.053 655.833,310.874 660.2,318.454C664.567,326.034 674.063,328.521 681.391,324.004Z" style="fill:rgb(33,37,41);"/>
            </g>
        </g>
        <g transform="matrix(1.15785,0,0,1.15785,232.271,262.143)">
            <path d="M751.919,775.355C741.907,782.156 730.871,787.576 719.062,791.258C707.62,794.825 695.468,796.768 682.875,796.881C669.269,796.872 656.154,794.737 643.885,790.705C624.784,784.429 607.741,773.618 593.926,759.645C571.333,736.794 557.434,705.338 557.631,670.697C557.679,654.716 560.79,639.465 566.238,625.4C571.888,610.814 580.063,597.482 590.377,586.078C591.386,584.976 591.31,583.262 590.208,582.254C589.106,581.245 587.393,581.32 586.384,582.422C575.458,594.214 566.612,607.998 560.659,623.229C554.911,637.934 551.877,653.968 551.927,670.697C552.133,706.754 566.919,739.35 590.705,762.867C605.144,777.144 622.908,788.028 642.687,794.389C655.357,798.464 668.853,800.713 682.875,800.704C695.884,800.82 708.458,798.992 720.353,795.559C732.707,791.994 744.326,786.682 754.906,779.87C756.152,779.046 756.494,777.365 755.67,776.119C754.846,774.873 753.165,774.53 751.919,775.355Z" style="fill:rgb(33,37,41);"/>
        </g>
        <g transform="matrix(1.15785,0,0,1.15785,232.271,262.143)">
            <path d="M612.33,567.464C622.583,560.535 633.921,555.109 646.017,551.436C657.68,547.894 670.054,545.987 682.875,546.032C689.513,545.996 696.031,546.496 702.399,547.442C729.159,551.42 753.402,563.571 771.745,581.827C776.638,586.696 781.068,592.031 785.028,597.706C794.109,610.72 800.48,625.644 804.141,641.583C806.292,650.944 807.545,660.675 807.535,670.697C807.589,685.324 805.111,699.373 800.534,712.44C795.783,726.001 788.779,738.511 779.942,749.494C778.88,750.801 779.078,752.723 780.385,753.786C781.691,754.848 783.614,754.649 784.676,753.343C794.079,741.899 801.589,728.837 806.705,714.632C811.65,700.905 814.348,686.112 814.404,670.697C814.394,660.126 813.218,649.826 810.766,639.996C806.619,623.372 798.99,608.155 789.144,594.758C784.887,588.964 780.181,583.532 775.123,578.449C756.033,559.268 731.337,545.522 703.431,540.885C696.739,539.773 689.87,539.21 682.875,539.171C669.363,539.22 656.325,541.288 644.071,545.143C631.398,549.129 619.564,555.013 608.882,562.43C607.493,563.382 607.138,565.282 608.089,566.671C609.041,568.06 610.941,568.415 612.33,567.464Z" style="fill:rgb(33,37,41);"/>
        </g>
        <g transform="matrix(3.32924,0,0,3.32924,355.897,949.382)">
            <path id="D20" d="M194.537,51.655L182.218,48.5L176.767,35.5L171.316,22.5L176.586,17.698C179.485,15.056 184.604,10.446 187.961,7.453L194.066,2.011L205.398,3.505C211.63,4.327 217.059,5 217.462,5C217.865,5 220.691,11.37 223.743,19.154L229.292,33.309L219.213,44.154C213.67,50.12 208.621,54.957 207.995,54.905C207.369,54.852 201.313,53.39 194.537,51.655ZM209.555,52.531C209.837,52.814 213.878,48.873 218.534,43.773C226.971,34.531 229.748,31.022 227.549,32.381C226.934,32.761 224.165,31.923 221.394,30.519C218.624,29.115 216.323,28.086 216.281,28.233C216.239,28.38 214.703,33.9 212.867,40.5C211.03,47.1 209.5,51.825 209.465,51C209.431,50.175 210.75,44.55 212.398,38.5L215.394,27.5L212.571,25C211.018,23.625 205.516,19.463 200.344,15.75C195.172,12.038 191.269,9 191.671,9C192.074,9 197.381,12.636 203.466,17.08C209.551,21.524 214.765,24.925 215.053,24.637C215.808,23.882 217.579,6.889 216.966,6.276C215.935,5.245 191.987,7.942 190.821,9.22C190.179,9.924 189.119,15 188.465,20.5C187.811,26 187.038,31.716 186.747,33.203L186.218,35.907L199.517,31.446C206.831,28.993 213.19,27.111 213.649,27.264C214.107,27.417 208.379,29.539 200.919,31.979C193.46,34.42 187.357,36.724 187.357,37.1C187.357,37.476 191.848,41.14 197.338,45.244C202.828,49.347 206.991,53.093 206.588,53.569C206.186,54.045 206.573,53.89 207.449,53.226C208.324,52.561 209.272,52.249 209.555,52.531ZM199.492,41.295C198.223,38.658 197.763,37.063 198.471,37.75C199.178,38.438 200.567,39 201.557,39C203.425,39 203.792,41.042 202.508,44.295C201.94,45.733 201.341,45.138 199.492,41.295ZM201.961,40.271C200.944,39.254 200.106,40.785 200.94,42.134C201.57,43.154 201.805,43.154 202.144,42.138C202.376,41.443 202.293,40.603 201.961,40.271L201.961,40.271ZM206.468,39.889C205.852,38.122 205.523,36.501 205.737,36.287C205.95,36.073 206.63,37.344 207.246,39.111C207.862,40.878 208.191,42.499 207.977,42.713C207.763,42.927 207.084,41.656 206.468,39.889ZM216.758,39.254C218.218,37.53 218.974,37.267 220.008,38.126C220.75,38.741 221.357,39.505 221.357,39.822C221.357,40.14 220.823,39.866 220.17,39.214C219.255,38.299 218.512,38.424 216.92,39.764C214.862,41.496 214.862,41.494 216.758,39.254ZM193.357,31.065C193.357,30.551 193.81,28.938 194.364,27.481C195.593,24.247 194.744,22.434 192.768,24.074C191.915,24.782 191.357,24.843 191.357,24.229C191.357,22.795 193.792,22.033 195.333,22.985C196.349,23.613 196.383,24.486 195.492,27.042C194.023,31.256 194.021,31.25 196.291,30.035C199.245,28.454 200.204,28.872 197.357,30.5C194.399,32.191 193.357,32.338 193.357,31.065ZM198.842,24.971C196.238,19.935 199.849,17.769 202.952,22.505C204.275,24.524 204.352,25.3 203.353,26.505C201.542,28.686 200.597,28.364 198.842,24.971ZM202.844,26.021C203.718,24.607 201.546,21 199.822,21C198.055,21 198.037,21.205 199.517,24.453C200.739,27.134 201.836,27.651 202.844,26.021ZM206.329,15.25L203.857,13.5L207.779,13C211.944,12.469 213.68,10.482 210.662,9.7C209.095,9.294 209.08,9.217 210.548,9.116C211.478,9.052 212.529,9.47 212.884,10.044C213.901,11.689 211.365,14 208.543,14C206.07,14 206.047,14.055 207.916,15.468C210.663,17.546 209.311,17.36 206.329,15.25ZM205.357,52.622C205.357,51.961 186.445,38 185.55,38C185.079,38 184.227,40.041 183.656,42.535C182.5,47.586 182.932,48.135 189.107,49.461C191.197,49.91 192.357,49.774 192.357,49.079C192.357,48.486 191.569,47.964 190.607,47.921C189.605,47.876 189.38,47.63 190.081,47.346C190.754,47.074 192.317,47.559 193.553,48.425C195.104,49.512 195.345,50.03 194.329,50.096C193.519,50.149 195.107,50.77 197.857,51.477C203.357,52.891 205.357,53.196 205.357,52.622ZM187.41,21.241C188.347,14.234 188.967,8.336 188.788,8.136C188.608,7.935 184.86,11.066 180.458,15.092C174.967,20.116 172.751,22.77 173.397,23.549C173.915,24.173 174.006,25.052 173.598,25.502C173.19,25.952 173.344,26.044 173.939,25.705C174.534,25.367 177.206,27.309 179.878,30.022C182.55,32.734 184.955,34.735 185.222,34.468C185.489,34.201 186.474,28.249 187.41,21.241ZM179.607,24.917C176.608,23.781 176.757,21.594 179.932,20.148C182.918,18.787 184.357,19.368 184.357,21.937C184.357,24.593 182.246,25.917 179.607,24.917ZM183.286,21.691C183.219,19.579 183.185,19.572 182.357,21.5C181.174,24.252 181.174,25.231 182.357,24.5C182.907,24.16 183.325,22.896 183.286,21.691ZM180.357,22.441C180.357,21.584 179.907,21.16 179.357,21.5C178.807,21.84 178.357,22.541 178.357,23.059C178.357,23.577 178.807,24 179.357,24C179.907,24 180.357,23.298 180.357,22.441Z" style="fill:rgb(33,37,41);fill-rule:nonzero;stroke:rgb(33,37,41);stroke-width:0.3px;"/>
        </g>
    </g>
</svg>
